<?xml version="1.0" encoding="UTF-8"?>
<svg width="200" height="200" viewBox="0 0 200 200" fill="none" xmlns="http://www.w3.org/2000/svg">
  <!-- Blue B Letter Logo -->
  <rect width="200" height="200" fill="none"/>
  
  <!-- Main letter B shape -->
  <path d="M 50 40 L 130 40 C 150 40 160 50 160 65 L 160 85 C 160 95 155 102 145 105 C 160 108 170 118 170 135 L 170 155 C 170 170 160 180 140 180 L 50 180 L 50 40 Z M 85 70 L 125 70 C 135 70 142 75 142 85 L 142 100 L 85 100 L 85 70 Z M 85 130 L 135 130 C 150 130 158 137 158 150 L 158 165 L 85 165 L 85 130 Z" fill="#4F92FF"/>
</svg>
